<?xml version="1.0" encoding="utf-8"?>
<!-- Generator: Adobe Illustrator 16.0.4, SVG Export Plug-In . SVG Version: 6.00 Build 0)  -->
<!DOCTYPE svg PUBLIC "-//W3C//DTD SVG 1.1//EN" "http://www.w3.org/Graphics/SVG/1.1/DTD/svg11.dtd">
<svg version="1.1" id="Layer_1" xmlns="http://www.w3.org/2000/svg" xmlns:xlink="http://www.w3.org/1999/xlink" x="0px" y="0px"
	 width="325px" height="150px" viewBox="0 0 325 150" enable-background="new 0 0 325 150" xml:space="preserve">
<g>
	<path fill="#F4F4F0" d="M80.342,67.656c3.093,0,7.11,0.966,10.125,2.09l1.268-0.066V57.11c-3.021-1.537-7.684-2.755-12.771-2.755
		c-12.246,0-21.195,7.127-22.658,17.164l16.875-0.875C74.556,68.817,76.953,67.656,80.342,67.656z"/>
	<path fill="#F4F4F0" d="M91.704,70.096v-0.572l-1.268,0.066C90.882,69.756,91.308,69.925,91.704,70.096z"/>
	<path fill="#F4F4F0" d="M74.972,79.848h3.815v1.959c-0.318,0.105-0.848,0.213-1.59,0.213c-3.869,0-7.419-2.703-7.419-7.208
		c0-1.64,0.466-3.125,1.371-4.326l-16.875,0.875c-0.139,0.952-0.235,1.92-0.235,2.921c0,11.022,8.691,19.448,22.522,19.448
		c6.306,0,11.288-1.748,14.096-3.498v-18.97H74.972V79.848z"/>
	<polygon fill="#F4F4F0" points="113.997,54.938 98.205,54.938 98.205,69.344 113.997,68.525 	"/>
	<polygon fill="#F4F4F0" points="111.966,68.369 96.174,69.188 96.174,93.148 123.837,93.148 123.837,79.529 111.966,79.529 	"/>
	<polygon fill="#F4F4F0" points="146.857,54.938 131.064,54.938 131.064,67.64 146.857,66.821 	"/>
	<polygon fill="#F4F4F0" points="129.033,67.484 129.033,93.148 144.826,93.148 144.826,66.665 	"/>
	<polygon fill="#F4F4F0" points="189.254,54.938 152.05,54.938 152.05,66.551 189.254,64.621 	"/>
	<polygon fill="#F4F4F0" points="150.02,66.395 150.02,67.817 160.725,67.817 160.725,93.148 168.621,97.01 176.518,93.148 
		176.518,67.817 187.223,67.817 187.223,64.465 	"/>
	<path fill="#F4F4F0" d="M226.193,56.58c-2.438-1.272-6.941-2.226-11.287-2.226c-8.861,0-16.002,3.9-19.67,9.957l30.957-1.606V56.58
		z"/>
	<path fill="#F4F4F0" d="M206.305,74.283c0-3.551,2.914-6.147,8.32-6.147c3.549,0,6.889,1.113,9.539,2.438v-8.025l-30.957,1.606
		c-1.729,2.853-2.695,6.179-2.695,9.81c0,11.395,9.381,19.768,22.205,19.768c4.557,0,9.168-1.061,11.658-2.385V77.833
		c-2.648,1.483-6.199,2.545-9.75,2.545C209.219,80.377,206.305,77.833,206.305,74.283z"/>
	<polygon fill="#F4F4F0" points="247.607,54.938 231.814,54.938 231.814,62.413 247.607,61.594 	"/>
	<polygon fill="#F4F4F0" points="271.348,54.938 255.557,54.938 255.557,61.181 271.348,60.362 	"/>
	<polygon fill="#F4F4F0" points="253.525,61.025 253.525,66.651 245.576,66.651 245.576,61.438 229.785,62.257 229.785,93.148 
		245.576,93.148 245.576,79.159 253.525,79.159 253.525,93.148 269.316,93.148 269.316,60.206 	"/>
</g>
</svg>
