<?xml version="1.0" encoding="utf-8"?>
<!-- Generator: Adobe Illustrator 16.0.4, SVG Export Plug-In . SVG Version: 6.00 Build 0)  -->
<!DOCTYPE svg PUBLIC "-//W3C//DTD SVG 1.1//EN" "http://www.w3.org/Graphics/SVG/1.1/DTD/svg11.dtd">
<svg version="1.1" id="Layer_1" xmlns="http://www.w3.org/2000/svg" xmlns:xlink="http://www.w3.org/1999/xlink" x="0px" y="0px"
	 width="252px" height="73.376px" viewBox="0 0 252 73.376" enable-background="new 0 0 252 73.376" xml:space="preserve">
<path fill="#F4F4F0" d="M44.311,28.5c3.093,0,7.11,0.966,10.125,2.09l1.268-0.066v-12.57c-3.021-1.537-7.684-2.755-12.771-2.755
	c-12.246,0-21.195,7.127-22.658,17.164l16.875-0.875C38.525,29.661,40.922,28.5,44.311,28.5z"/>
<path fill="#F4F4F0" d="M55.704,31.096v-0.572l-1.268,0.066C54.882,30.756,55.308,30.925,55.704,31.096z"/>
<path fill="#F4F4F0" d="M38.972,40.847h3.815v1.96c-0.318,0.106-0.848,0.212-1.59,0.212c-3.869,0-7.419-2.703-7.419-7.207
	c0-1.64,0.466-3.125,1.371-4.326l-16.875,0.875c-0.139,0.952-0.235,1.92-0.235,2.921c0,11.022,8.691,19.449,22.522,19.449
	c6.306,0,11.288-1.749,14.096-3.498V32.262H38.972V40.847z"/>
<polygon fill="#F4F4F0" points="77.966,15.781 62.174,15.781 62.174,30.188 77.966,29.369 "/>
<polygon fill="#F4F4F0" points="75.966,29.369 60.174,30.188 60.174,54.148 87.837,54.148 87.837,40.529 75.966,40.529 "/>
<polygon fill="#F4F4F0" points="110.826,15.781 95.033,15.781 95.033,28.484 110.826,27.665 "/>
<polygon fill="#F4F4F0" points="93.033,28.484 93.033,54.148 108.826,54.148 108.826,27.665 "/>
<polygon fill="#F4F4F0" points="153.222,15.781 116.02,15.781 116.02,27.395 153.222,25.465 "/>
<polygon fill="#F4F4F0" points="114.02,27.395 114.02,28.817 124.725,28.817 124.725,54.148 140.517,54.148 140.517,28.817 
	151.222,28.817 151.222,25.465 "/>
<path fill="#F4F4F0" d="M190.163,17.424c-2.438-1.272-6.942-2.226-11.288-2.226c-8.862,0-16.001,3.9-19.669,9.957l30.957-1.606
	V17.424z"/>
<path fill="#F4F4F0" d="M170.304,35.283c0-3.551,2.915-6.147,8.32-6.147c3.55,0,6.889,1.113,9.539,2.438v-8.025l-30.957,1.606
	c-1.728,2.853-2.694,6.179-2.694,9.81c0,11.394,9.38,19.767,22.204,19.767c4.558,0,9.168-1.06,11.659-2.385V38.833
	c-2.649,1.484-6.2,2.544-9.75,2.544C173.218,41.377,170.304,38.833,170.304,35.283z"/>
<polygon fill="#F4F4F0" points="211.576,15.781 195.784,15.781 195.784,23.257 211.576,22.438 "/>
<polygon fill="#F4F4F0" points="235.317,15.781 219.525,15.781 219.525,22.025 235.317,21.206 "/>
<polygon fill="#F4F4F0" points="217.525,22.025 217.525,27.651 209.576,27.651 209.576,22.438 193.784,23.257 193.784,54.148 
	209.576,54.148 209.576,40.158 217.525,40.158 217.525,54.148 233.317,54.148 233.317,21.206 "/>
</svg>
