<?xml version="1.0" encoding="utf-8"?>
<!-- Generator: Adobe Illustrator 16.0.4, SVG Export Plug-In . SVG Version: 6.00 Build 0)  -->
<!DOCTYPE svg PUBLIC "-//W3C//DTD SVG 1.1//EN" "http://www.w3.org/Graphics/SVG/1.1/DTD/svg11.dtd">
<svg version="1.1" id="Layer_1" xmlns="http://www.w3.org/2000/svg" xmlns:xlink="http://www.w3.org/1999/xlink" x="0px" y="0px"
	 width="137.5px" height="29.5px" viewBox="0 0 137.5 29.5" enable-background="new 0 0 137.5 29.5" xml:space="preserve">
<path fill="#FE687A" d="M26.65,7.006V5.915H10.227C9.723,6.25,9.244,6.61,8.803,7.006H26.65z"/>
<path fill="#FE687A" d="M25.25,5.041c-0.78-0.375-1.722-0.713-2.777-0.981h-9.321c-0.922,0.251-1.791,0.582-2.601,0.981H25.25z"/>
<path fill="#FE687A" d="M21.015,11.808c1.359,0.25,2.745,0.654,3.876,1.091h0.57v-1.091H21.015z"/>
<path fill="#FE687A" d="M25.46,8.971V7.879H6.738C6.426,8.226,6.141,8.592,5.875,8.971H25.46z"/>
<rect x="16.412" y="15.736" fill="#FE687A" width="9.533" height="1.091"/>
<rect x="16.507" y="17.7" fill="#FE687A" width="9.533" height="1.092"/>
<rect x="16.507" y="13.835" fill="#FE687A" width="9.533" height="1.029"/>
<path fill="#FE687A" d="M25.46,10.934V9.843H5.311c-0.203,0.353-0.386,0.717-0.55,1.091H25.46z"/>
<path fill="#FE687A" d="M26.587,24.685v-1.092H7.521c0.383,0.39,0.794,0.754,1.24,1.092H26.587z"/>
<path fill="#FE687A" d="M26.04,20.756v-1.091h-7.214v0.58c-0.192,0.062-0.516,0.13-0.967,0.13c-0.909,0-1.788-0.249-2.525-0.71
	H4.484c0.136,0.375,0.292,0.738,0.466,1.091H26.04z"/>
<path fill="#FE687A" d="M26.04,22.721V21.63H5.428c0.232,0.379,0.49,0.741,0.77,1.091H26.04z"/>
<path fill="#FE687A" d="M9.527,25.559c0.758,0.433,1.586,0.796,2.474,1.09h11.126c1.019-0.32,1.884-0.698,2.575-1.09H9.527z"/>
<path fill="#FE687A" d="M14.603,12.898c0.514-0.494,1.196-0.863,2.021-1.091H4.421c-0.122,0.355-0.224,0.72-0.311,1.091H14.603z"/>
<path fill="#FE687A" d="M14.328,18.792c-0.268-0.32-0.489-0.684-0.652-1.092H3.966c0.063,0.372,0.144,0.736,0.241,1.092H14.328z"/>
<path fill="#FE687A" d="M13.499,14.864c0.094-0.39,0.243-0.754,0.438-1.091H3.947c-0.057,0.357-0.097,0.721-0.121,1.091H13.499z"/>
<path fill="#FE687A" d="M13.333,16.827c-0.047-0.266-0.076-0.542-0.076-0.833c0-0.089,0.019-0.171,0.023-0.258H3.693
	c0.002,0.369,0.021,0.733,0.055,1.091H13.333z"/>
<rect x="29.415" y="9.898" fill="#FE687A" width="9.596" height="1.091"/>
<rect x="29.415" y="13.826" fill="#FE687A" width="9.596" height="1.092"/>
<rect x="29.415" y="11.862" fill="#FE687A" width="9.596" height="1.091"/>
<rect x="29.415" y="7.934" fill="#FE687A" width="9.596" height="1.092"/>
<rect x="29.415" y="4.115" fill="#FE687A" width="9.596" height="0.981"/>
<rect x="30.605" y="5.969" fill="#FE687A" width="9.596" height="1.091"/>
<rect x="29.415" y="19.719" fill="#FE687A" width="16.813" height="1.091"/>
<rect x="29.415" y="25.612" fill="#FE687A" width="16.813" height="1.092"/>
<rect x="29.32" y="15.791" fill="#FE687A" width="9.596" height="1.091"/>
<rect x="29.963" y="23.648" fill="#FE687A" width="16.813" height="1.091"/>
<rect x="29.415" y="21.684" fill="#FE687A" width="16.813" height="1.092"/>
<rect x="29.415" y="17.755" fill="#FE687A" width="9.596" height="1.092"/>
<rect x="48.168" y="9.843" fill="#FE687A" width="9.596" height="1.091"/>
<rect x="48.168" y="11.808" fill="#FE687A" width="9.596" height="1.091"/>
<rect x="48.168" y="13.772" fill="#FE687A" width="9.596" height="1.091"/>
<rect x="48.168" y="4.06" fill="#FE687A" width="9.596" height="0.981"/>
<rect x="49.358" y="5.915" fill="#FE687A" width="9.597" height="1.091"/>
<rect x="48.168" y="7.879" fill="#FE687A" width="9.596" height="1.091"/>
<rect x="48.168" y="19.665" fill="#FE687A" width="9.596" height="1.091"/>
<rect x="48.168" y="25.559" fill="#FE687A" width="9.596" height="1.09"/>
<rect x="48.716" y="23.593" fill="#FE687A" width="9.596" height="1.092"/>
<rect x="48.168" y="17.7" fill="#FE687A" width="9.596" height="1.092"/>
<rect x="48.073" y="15.736" fill="#FE687A" width="9.597" height="1.091"/>
<rect x="48.168" y="21.629" fill="#FE687A" width="9.596" height="1.091"/>
<rect x="60.646" y="9.843" fill="#FE687A" width="22.608" height="1.091"/>
<rect x="60.646" y="7.878" fill="#FE687A" width="22.608" height="1.091"/>
<rect x="67.15" y="11.807" fill="#FE687A" width="9.598" height="1.092"/>
<rect x="61.837" y="5.914" fill="#FE687A" width="22.608" height="1.091"/>
<rect x="67.15" y="13.771" fill="#FE687A" width="9.598" height="1.091"/>
<rect x="60.646" y="4.06" fill="#FE687A" width="22.608" height="0.981"/>
<rect x="67.15" y="21.629" fill="#FE687A" width="9.598" height="1.091"/>
<rect x="67.698" y="23.593" fill="#FE687A" width="9.598" height="1.092"/>
<rect x="67.15" y="19.665" fill="#FE687A" width="9.598" height="1.091"/>
<rect x="67.055" y="15.736" fill="#FE687A" width="9.598" height="1.091"/>
<rect x="67.15" y="17.7" fill="#FE687A" width="9.598" height="1.092"/>
<path fill="#FE687A" d="M105.434,11.007V9.915H86.433c-0.198,0.353-0.375,0.717-0.534,1.092H105.434z"/>
<path fill="#FE687A" d="M94.674,14.936c0.091-0.397,0.267-0.758,0.493-1.091H85.118c-0.052,0.358-0.085,0.722-0.104,1.091H94.674z"
	/>
<path fill="#FE687A" d="M96.029,12.971c0.85-0.602,2.054-0.965,3.609-0.965c1.67,0,3.261,0.407,4.643,0.965h1.152V11.88H85.56
	c-0.117,0.356-0.213,0.721-0.294,1.091H96.029z"/>
<path fill="#FE687A" d="M105.434,5.113V4.888c-0.545-0.284-1.264-0.543-2.083-0.756h-9.229c-0.904,0.252-1.758,0.583-2.554,0.981
	L105.434,5.113L105.434,5.113z"/>
<path fill="#FE687A" d="M105.566,18.864v-0.963c-0.674,0.377-1.446,0.705-2.271,0.963H105.566z"/>
<path fill="#FE687A" d="M106.624,7.078V5.986H91.268c-0.494,0.336-0.96,0.698-1.392,1.091H106.624z"/>
<path fill="#FE687A" d="M105.434,9.042V7.951H87.828c-0.307,0.346-0.587,0.712-0.848,1.091H105.434z"/>
<path fill="#FE687A" d="M94.701,16.899c-0.122-0.341-0.199-0.702-0.206-1.091h-9.593c0.008,0.368,0.024,0.734,0.063,1.091H94.701z"
	/>
<path fill="#FE687A" d="M106.114,24.758v-1.092H88.862c0.387,0.388,0.8,0.754,1.244,1.092H106.114z"/>
<path fill="#FE687A" d="M105.566,25.63H90.864c0.75,0.434,1.56,0.798,2.417,1.092h10.784c0.576-0.185,1.087-0.391,1.501-0.608V25.63
	z"/>
<path fill="#FE687A" d="M105.566,22.793v-1.092H86.74c0.24,0.38,0.504,0.742,0.787,1.092H105.566z"/>
<path fill="#FE687A" d="M105.566,20.829v-1.093H85.758c0.145,0.375,0.306,0.738,0.487,1.092L105.566,20.829L105.566,20.829z"/>
<path fill="#FE687A" d="M96.648,18.864c-0.589-0.278-1.052-0.65-1.391-1.091h-10.06c0.07,0.372,0.16,0.734,0.264,1.091H96.648z"/>
<rect x="124.24" y="5.77" fill="#FE687A" width="9.596" height="1.091"/>
<rect x="123.051" y="3.915" fill="#FE687A" width="9.595" height="0.981"/>
<rect x="123.051" y="7.734" fill="#FE687A" width="9.595" height="1.091"/>
<rect x="109.812" y="5.77" fill="#FE687A" width="9.594" height="1.091"/>
<rect x="108.622" y="3.915" fill="#FE687A" width="9.595" height="0.981"/>
<rect x="123.599" y="23.449" fill="#FE687A" width="9.595" height="1.091"/>
<rect x="123.051" y="21.484" fill="#FE687A" width="9.595" height="1.091"/>
<rect x="108.622" y="7.734" fill="#FE687A" width="9.595" height="1.091"/>
<rect x="123.051" y="19.52" fill="#FE687A" width="9.595" height="1.092"/>
<rect x="123.051" y="9.699" fill="#FE687A" width="9.595" height="1.091"/>
<rect x="108.622" y="21.484" fill="#FE687A" width="9.595" height="1.091"/>
<rect x="108.622" y="19.52" fill="#FE687A" width="9.595" height="1.092"/>
<rect x="109.17" y="23.449" fill="#FE687A" width="9.594" height="1.091"/>
<rect x="108.622" y="25.413" fill="#FE687A" width="9.595" height="1.092"/>
<rect x="123.051" y="25.413" fill="#FE687A" width="9.595" height="1.092"/>
<rect x="108.622" y="13.627" fill="#FE687A" width="24.023" height="1.091"/>
<polygon fill="#FE687A" points="118.217,18.646 118.217,18.49 123.051,18.49 123.051,18.646 132.646,18.646 132.646,17.556 
	108.622,17.556 108.622,18.646 "/>
<rect x="108.622" y="11.663" fill="#FE687A" width="24.023" height="1.091"/>
<rect x="108.622" y="9.699" fill="#FE687A" width="9.595" height="1.091"/>
<rect x="108.527" y="15.591" fill="#FE687A" width="24.024" height="1.092"/>
<rect x="67.15" y="25.559" fill="#FE687A" width="9.598" height="1.09"/>
</svg>
