<?xml version="1.0" encoding="utf-8"?>
<!-- Generator: Adobe Illustrator 16.0.4, SVG Export Plug-In . SVG Version: 6.00 Build 0)  -->
<!DOCTYPE svg PUBLIC "-//W3C//DTD SVG 1.1//EN" "http://www.w3.org/Graphics/SVG/1.1/DTD/svg11.dtd">
<svg version="1.1" id="Layer_1" xmlns="http://www.w3.org/2000/svg" xmlns:xlink="http://www.w3.org/1999/xlink" x="0px" y="0px"
	 width="150px" height="150px" viewBox="0 0 150 150" enable-background="new 0 0 150 150" xml:space="preserve">
<path fill="#FE687A" d="M144.876,24.923V18.33H45.607c-3.045,2.029-5.94,4.202-8.604,6.593H144.876z"/>
<path fill="#FE687A" d="M135.878,13.048c-4.714-2.27-10.409-4.312-16.785-5.93H62.755c-5.577,1.521-10.823,3.518-15.721,5.93
	H135.878z"/>
<path fill="#FE687A" d="M110.275,53.949c8.214,1.512,16.59,3.951,23.428,6.593h3.443v-6.593H110.275z"/>
<path fill="#FE687A" d="M139.899,36.8v-6.596H26.737c-1.888,2.093-3.608,4.306-5.22,6.596H139.899z"/>
<rect x="80.538" y="77.693" fill="#FE687A" width="57.618" height="6.597"/>
<rect x="84.403" y="89.564" fill="#FE687A" width="57.619" height="6.6"/>
<rect x="83.025" y="66.201" fill="#FE687A" width="57.62" height="6.218"/>
<path fill="#FE687A" d="M141.961,48.668v-6.596H15.483c-1.274,2.132-2.421,4.335-3.451,6.596H141.961z"/>
<path fill="#FE687A" d="M149.468,131.779v-6.596H34.22c2.315,2.352,4.802,4.559,7.494,6.596H149.468z"/>
<path fill="#FE687A" d="M140.646,108.035v-6.593H97.042v3.504c-1.16,0.379-3.124,0.785-5.851,0.785
	c-5.495,0-10.809-1.506-15.263-4.289H10.36c0.824,2.265,1.761,4.464,2.815,6.593H140.646z"/>
<path fill="#FE687A" d="M143.318,119.912v-6.597H16.062c1.437,2.291,3.028,4.48,4.751,6.597H143.318z"/>
<path fill="#FE687A" d="M40.842,137.061c4.58,2.617,9.585,4.817,14.95,6.593h67.248c6.157-1.938,11.39-4.222,15.566-6.593H40.842z"
	/>
<path fill="#FE687A" d="M71.52,60.542c3.106-2.988,7.229-5.216,12.217-6.593H9.978c-0.735,2.148-1.35,4.351-1.875,6.593H71.52z"/>
<path fill="#FE687A" d="M69.86,96.164c-1.619-1.936-2.958-4.135-3.946-6.6H7.228c0.38,2.251,0.871,4.447,1.459,6.6H69.86z"/>
<path fill="#FE687A" d="M64.844,72.419c0.568-2.355,1.465-4.555,2.643-6.596H7.112c-0.341,2.161-0.584,4.357-0.73,6.596H64.844z"/>
<path fill="#FE687A" d="M57.796,84.29c-0.284-1.608-0.46-3.279-0.46-5.039c0-0.536,0.113-1.033,0.139-1.558H-0.476
	c0.015,2.229,0.125,4.433,0.332,6.597H57.796z"/>
</svg>
