<?xml version="1.0" encoding="utf-8"?>
<!-- Generator: Adobe Illustrator 16.0.4, SVG Export Plug-In . SVG Version: 6.00 Build 0)  -->
<!DOCTYPE svg PUBLIC "-//W3C//DTD SVG 1.1//EN" "http://www.w3.org/Graphics/SVG/1.1/DTD/svg11.dtd">
<svg version="1.1" id="Layer_1" xmlns="http://www.w3.org/2000/svg" xmlns:xlink="http://www.w3.org/1999/xlink" x="0px" y="0px"
	 width="145px" height="39px" viewBox="90 56.5 145 39" enable-background="new 90 56.5 145 39" xml:space="preserve">
<g>
	<g>
		<g>
			<path fill="#FE687A" d="M119.637,67.147v-1.101h-16.566c-0.508,0.339-0.991,0.701-1.436,1.101H119.637L119.637,67.147z"/>
			<path fill="#FE687A" d="M119.426,65.167c-0.787-0.379-1.737-0.721-2.8-0.99h-9.402c-0.93,0.254-1.806,0.588-2.624,0.99H119.426z"
				/>
			<path fill="#FE687A" d="M115.153,71.991c1.371,0.252,2.769,0.66,3.91,1.101h0.574v-1.101H115.153z"/>
			<path fill="#FE687A" d="M119.637,69.128v-1.101h-18.884c-0.315,0.35-0.602,0.719-0.871,1.101H119.637z"/>
			<rect x="110.606" y="75.953" fill="#FE687A" width="9.615" height="1.102"/>
			<rect x="110.606" y="77.934" fill="#FE687A" width="9.615" height="1.104"/>
			<rect x="110.606" y="74.036" fill="#FE687A" width="9.615" height="1.037"/>
			<path fill="#FE687A" d="M119.637,71.11v-1.102H99.314c-0.205,0.355-0.389,0.723-0.555,1.102H119.637z"/>
			<path fill="#FE687A" d="M120.222,84.979v-1.102H100.99c0.387,0.393,0.802,0.76,1.251,1.102H120.222z"/>
			<path fill="#FE687A" d="M120.222,81.016v-1.1h-7.276V80.5c-0.194,0.062-0.521,0.131-0.976,0.131c-0.917,0-1.804-0.25-2.547-0.715
				H98.48c0.137,0.377,0.293,0.744,0.47,1.1H120.222L120.222,81.016z"/>
			<path fill="#FE687A" d="M120.222,82.998v-1.102h-20.79c0.234,0.383,0.495,0.748,0.776,1.102H120.222z"/>
			<path fill="#FE687A" d="M103.567,85.859c0.764,0.438,1.6,0.805,2.495,1.102h11.222c1.028-0.324,1.9-0.705,2.598-1.102H103.567z"
				/>
			<path fill="#FE687A" d="M108.686,73.091c0.519-0.499,1.206-0.87,2.039-1.101H98.417c-0.123,0.357-0.225,0.726-0.313,1.101
				H108.686z"/>
			<path fill="#FE687A" d="M108.409,79.035c-0.27-0.322-0.493-0.689-0.658-1.102h-9.792c0.063,0.375,0.145,0.742,0.243,1.102
				H108.409z"/>
			<path fill="#FE687A" d="M107.572,75.073c0.095-0.393,0.245-0.76,0.441-1.102H97.938c-0.057,0.361-0.098,0.729-0.122,1.102
				H107.572z"/>
			<path fill="#FE687A" d="M107.501,77.055c-0.047-0.27-0.076-0.549-0.076-0.842c0-0.09,0.019-0.172,0.023-0.26h-9.671
				c0.002,0.371,0.021,0.738,0.055,1.102H107.501z"/>
		</g>
		<g>
			<rect x="123.626" y="70.065" fill="#FE687A" width="9.679" height="1.101"/>
			<rect x="123.626" y="74.026" fill="#FE687A" width="9.679" height="1.102"/>
			<rect x="123.626" y="72.045" fill="#FE687A" width="9.679" height="1.102"/>
			<rect x="123.626" y="68.083" fill="#FE687A" width="9.679" height="1.101"/>
			<rect x="123.626" y="64.231" fill="#FE687A" width="9.679" height="0.99"/>
			<rect x="123.626" y="66.102" fill="#FE687A" width="9.679" height="1.101"/>
			<rect x="123.626" y="79.971" fill="#FE687A" width="16.958" height="1.102"/>
			<rect x="123.626" y="85.914" fill="#FE687A" width="16.958" height="1.102"/>
			<rect x="123.626" y="76.008" fill="#FE687A" width="9.679" height="1.102"/>
			<rect x="123.626" y="83.934" fill="#FE687A" width="16.958" height="1.102"/>
			<rect x="123.626" y="81.951" fill="#FE687A" width="16.958" height="1.102"/>
			<rect x="123.626" y="77.99" fill="#FE687A" width="9.679" height="1.1"/>
		</g>
		<g>
			<rect x="142.542" y="70.009" fill="#FE687A" width="9.679" height="1.101"/>
			<rect x="142.542" y="71.991" fill="#FE687A" width="9.679" height="1.101"/>
			<rect x="142.542" y="73.973" fill="#FE687A" width="9.679" height="1.101"/>
			<rect x="142.542" y="64.176" fill="#FE687A" width="9.679" height="0.99"/>
			<rect x="142.542" y="66.046" fill="#FE687A" width="9.679" height="1.101"/>
			<rect x="142.542" y="68.028" fill="#FE687A" width="9.679" height="1.101"/>
			<rect x="142.542" y="79.916" fill="#FE687A" width="9.679" height="1.1"/>
			<rect x="142.542" y="85.859" fill="#FE687A" width="9.679" height="1.102"/>
			<rect x="142.542" y="83.879" fill="#FE687A" width="9.679" height="1.1"/>
			<rect x="142.542" y="77.934" fill="#FE687A" width="9.679" height="1.104"/>
			<rect x="142.542" y="75.953" fill="#FE687A" width="9.679" height="1.102"/>
			<rect x="142.542" y="81.896" fill="#FE687A" width="9.679" height="1.102"/>
		</g>
		<g>
			<rect x="155.128" y="70.008" fill="#FE687A" width="22.804" height="1.102"/>
			<rect x="155.128" y="68.028" fill="#FE687A" width="22.804" height="1.101"/>
			<rect x="161.688" y="71.99" fill="#FE687A" width="9.683" height="1.101"/>
			<rect x="155.128" y="66.045" fill="#FE687A" width="22.804" height="1.102"/>
			<rect x="161.688" y="73.971" fill="#FE687A" width="9.683" height="1.102"/>
			<rect x="155.128" y="64.175" fill="#FE687A" width="22.804" height="0.99"/>
			<rect x="161.688" y="81.896" fill="#FE687A" width="9.683" height="1.102"/>
			<rect x="161.688" y="83.879" fill="#FE687A" width="9.683" height="1.1"/>
			<rect x="161.688" y="79.916" fill="#FE687A" width="9.683" height="1.1"/>
			<rect x="161.688" y="75.953" fill="#FE687A" width="9.683" height="1.102"/>
			<rect x="161.688" y="77.934" fill="#FE687A" width="9.683" height="1.104"/>
		</g>
		<g>
			<path fill="#FE687A" d="M200.303,71.184v-1.102h-19.164c-0.199,0.355-0.379,0.723-0.539,1.102H200.303z"/>
			<path fill="#FE687A" d="M189.45,75.145c0.092-0.4,0.269-0.765,0.497-1.101h-10.137c-0.053,0.361-0.086,0.728-0.104,1.101H189.45z
				"/>
			<path fill="#FE687A" d="M190.816,73.165c0.856-0.607,2.07-0.975,3.641-0.975c1.684,0,3.29,0.412,4.684,0.975h1.162v-1.102
				h-20.047c-0.117,0.358-0.214,0.728-0.296,1.102H190.816z"/>
			<path fill="#FE687A" d="M200.303,65.239v-0.227c-0.55-0.287-1.273-0.549-2.102-0.764h-9.309c-0.914,0.254-1.772,0.588-2.576,0.99
				H200.303z"/>
			<path fill="#FE687A" d="M200.436,79.107v-0.971c-0.68,0.379-1.457,0.711-2.289,0.971H200.436z"/>
			<path fill="#FE687A" d="M200.303,67.219v-1.101h-15.488c-0.5,0.339-0.969,0.704-1.403,1.101H200.303z"/>
			<path fill="#FE687A" d="M200.303,69.202V68.1h-17.758c-0.309,0.35-0.592,0.719-0.854,1.102H200.303z"/>
			<path fill="#FE687A" d="M189.572,77.127c-0.122-0.344-0.201-0.709-0.208-1.102h-9.677c0.008,0.371,0.025,0.74,0.064,1.102
				H189.572z"/>
			<path fill="#FE687A" d="M200.436,85.053v-1.102h-17.399c0.39,0.391,0.807,0.762,1.255,1.102H200.436z"/>
			<path fill="#FE687A" d="M200.436,85.934h-14.828c0.756,0.438,1.572,0.803,2.438,1.102h10.878c0.58-0.188,1.097-0.395,1.513-0.615
				V85.934z"/>
			<path fill="#FE687A" d="M200.436,83.07v-1.102h-18.987c0.241,0.383,0.508,0.75,0.793,1.102H200.436z"/>
			<path fill="#FE687A" d="M200.436,81.09v-1.102h-19.979c0.145,0.379,0.309,0.744,0.491,1.102H200.436z"/>
			<path fill="#FE687A" d="M191.441,79.107c-0.596-0.279-1.062-0.654-1.403-1.102h-10.146c0.069,0.375,0.16,0.742,0.266,1.102
				H191.441z"/>
		</g>
		<g>
			<rect x="218.07" y="65.901" fill="#FE687A" width="9.68" height="1.101"/>
			<rect x="218.07" y="64.03" fill="#FE687A" width="9.68" height="0.99"/>
			<rect x="218.07" y="67.881" fill="#FE687A" width="9.68" height="1.102"/>
			<rect x="203.518" y="65.901" fill="#FE687A" width="9.678" height="1.101"/>
			<rect x="203.518" y="64.03" fill="#FE687A" width="9.678" height="0.99"/>
			<rect x="218.07" y="83.732" fill="#FE687A" width="9.68" height="1.102"/>
			<rect x="218.07" y="81.752" fill="#FE687A" width="9.68" height="1.1"/>
			<rect x="203.518" y="67.881" fill="#FE687A" width="9.678" height="1.102"/>
			<rect x="218.07" y="79.77" fill="#FE687A" width="9.68" height="1.102"/>
			<rect x="218.07" y="69.862" fill="#FE687A" width="9.68" height="1.102"/>
			<rect x="203.518" y="81.752" fill="#FE687A" width="9.678" height="1.1"/>
			<rect x="203.518" y="79.77" fill="#FE687A" width="9.678" height="1.102"/>
			<rect x="203.518" y="83.732" fill="#FE687A" width="9.678" height="1.102"/>
			<rect x="203.518" y="85.715" fill="#FE687A" width="9.678" height="1.1"/>
			<rect x="218.07" y="85.715" fill="#FE687A" width="9.68" height="1.1"/>
			<rect x="203.518" y="73.827" fill="#FE687A" width="24.232" height="1.101"/>
			<polygon fill="#FE687A" points="213.195,78.889 213.195,78.73 218.07,78.73 218.07,78.889 227.75,78.889 227.75,77.789 
				203.518,77.789 203.518,78.889 			"/>
			<rect x="203.518" y="71.844" fill="#FE687A" width="24.232" height="1.102"/>
			<rect x="203.518" y="69.862" fill="#FE687A" width="9.678" height="1.102"/>
			<rect x="203.518" y="75.807" fill="#FE687A" width="24.232" height="1.102"/>
		</g>
	</g>
	<rect x="161.688" y="85.859" fill="#FE687A" width="9.683" height="1.102"/>
</g>
</svg>
