<?xml version="1.0" encoding="utf-8"?>
<!-- Generator: Adobe Illustrator 16.0.4, SVG Export Plug-In . SVG Version: 6.00 Build 0)  -->
<!DOCTYPE svg PUBLIC "-//W3C//DTD SVG 1.1//EN" "http://www.w3.org/Graphics/SVG/1.1/DTD/svg11.dtd">
<svg version="1.1" id="Layer_1" xmlns="http://www.w3.org/2000/svg" xmlns:xlink="http://www.w3.org/1999/xlink" x="0px" y="0px"
	 width="252px" height="54px" viewBox="0 58.5 252 54" enable-background="new 0 58.5 252 54" xml:space="preserve">
<g>
	<g>
		<g>
			<path fill="#231F20" d="M47.631,71.175v-1.994H17.619c-0.921,0.614-1.796,1.271-2.601,1.994H47.631z"/>
			<path fill="#231F20" d="M47.248,67.585c-1.425-0.687-3.146-1.304-5.074-1.793H25.141c-1.686,0.46-3.272,1.064-4.753,1.793H47.248
				z"/>
			<path fill="#231F20" d="M39.508,79.95c2.483,0.457,5.015,1.195,7.083,1.994h1.041V79.95H39.508z"/>
			<path fill="#231F20" d="M47.631,74.765v-1.994H13.419c-0.571,0.633-1.091,1.302-1.578,1.994H47.631z"/>
			<rect x="31.27" y="87.129" fill="#231F20" width="17.42" height="1.994"/>
			<rect x="31.27" y="90.718" fill="#231F20" width="17.42" height="1.995"/>
			<rect x="31.27" y="83.655" fill="#231F20" width="17.42" height="1.879"/>
			<path fill="#231F20" d="M47.631,78.354V76.36h-36.82c-0.371,0.644-0.705,1.31-1.005,1.994H47.631z"/>
			<path fill="#231F20" d="M48.69,103.481v-1.994H13.848c0.7,0.71,1.452,1.377,2.266,1.994H48.69z"/>
			<path fill="#231F20" d="M48.69,96.302v-1.994H35.507v1.06c-0.351,0.115-0.944,0.237-1.768,0.237
				c-1.662,0-3.268-0.455-4.615-1.297H9.301c0.249,0.685,0.532,1.35,0.851,1.994H48.69z"/>
			<path fill="#231F20" d="M48.69,99.892v-1.994H11.025c0.425,0.693,0.896,1.355,1.406,1.994H48.69z"/>
			<path fill="#231F20" d="M18.516,105.077c1.385,0.791,2.898,1.456,4.52,1.994h20.331c1.862-0.586,3.443-1.277,4.706-1.994H18.516z
				"/>
			<path fill="#231F20" d="M27.791,81.944c0.939-0.904,2.185-1.578,3.694-1.994h-22.3c-0.222,0.649-0.408,1.315-0.567,1.994H27.791z
				"/>
			<path fill="#231F20" d="M27.289,92.713c-0.489-0.585-0.894-1.25-1.193-1.995H8.354c0.115,0.68,0.263,1.344,0.441,1.995H27.289z"
				/>
			<path fill="#231F20" d="M25.773,85.534c0.172-0.712,0.443-1.377,0.799-1.994H8.319c-0.103,0.654-0.177,1.318-0.221,1.994H25.773z
				"/>
			<path fill="#231F20" d="M25.644,89.123c-0.086-0.486-0.139-0.991-0.139-1.524c0-0.161,0.034-0.312,0.042-0.47H8.027
				c0.004,0.674,0.038,1.34,0.1,1.994H25.644z"/>
		</g>
		<g>
			<rect x="54.858" y="76.46" fill="#231F20" width="17.535" height="1.994"/>
			<rect x="54.858" y="83.639" fill="#231F20" width="17.535" height="1.995"/>
			<rect x="54.858" y="80.05" fill="#231F20" width="17.535" height="1.994"/>
			<rect x="54.858" y="72.87" fill="#231F20" width="17.535" height="1.995"/>
			<rect x="54.858" y="65.892" fill="#231F20" width="17.535" height="1.793"/>
			<rect x="54.858" y="69.281" fill="#231F20" width="17.535" height="1.994"/>
			<rect x="54.858" y="94.407" fill="#231F20" width="30.724" height="1.994"/>
			<rect x="54.858" y="105.177" fill="#231F20" width="30.724" height="1.994"/>
			<rect x="54.858" y="87.229" fill="#231F20" width="17.535" height="1.994"/>
			<rect x="54.858" y="101.587" fill="#231F20" width="30.724" height="1.994"/>
			<rect x="54.858" y="97.997" fill="#231F20" width="30.724" height="1.994"/>
			<rect x="54.858" y="90.818" fill="#231F20" width="17.535" height="1.994"/>
		</g>
		<g>
			<rect x="89.127" y="76.36" fill="#231F20" width="17.536" height="1.994"/>
			<rect x="89.127" y="79.95" fill="#231F20" width="17.536" height="1.994"/>
			<rect x="89.127" y="83.54" fill="#231F20" width="17.536" height="1.994"/>
			<rect x="89.127" y="65.792" fill="#231F20" width="17.536" height="1.793"/>
			<rect x="89.127" y="69.181" fill="#231F20" width="17.536" height="1.994"/>
			<rect x="89.127" y="72.771" fill="#231F20" width="17.536" height="1.994"/>
			<rect x="89.127" y="94.308" fill="#231F20" width="17.536" height="1.994"/>
			<rect x="89.127" y="105.077" fill="#231F20" width="17.536" height="1.994"/>
			<rect x="89.127" y="101.487" fill="#231F20" width="17.536" height="1.994"/>
			<rect x="89.127" y="90.718" fill="#231F20" width="17.536" height="1.995"/>
			<rect x="89.127" y="87.129" fill="#231F20" width="17.536" height="1.994"/>
			<rect x="89.127" y="97.897" fill="#231F20" width="17.536" height="1.994"/>
		</g>
		<g>
			<rect x="111.93" y="76.359" fill="#231F20" width="41.314" height="1.994"/>
			<rect x="111.93" y="72.769" fill="#231F20" width="41.314" height="1.994"/>
			<rect x="123.814" y="79.948" fill="#231F20" width="17.54" height="1.995"/>
			<rect x="111.93" y="69.179" fill="#231F20" width="41.314" height="1.995"/>
			<rect x="123.814" y="83.538" fill="#231F20" width="17.54" height="1.994"/>
			<rect x="111.93" y="65.791" fill="#231F20" width="41.314" height="1.793"/>
			<rect x="123.814" y="97.897" fill="#231F20" width="17.54" height="1.994"/>
			<rect x="123.814" y="101.487" fill="#231F20" width="17.54" height="1.994"/>
			<rect x="123.814" y="94.308" fill="#231F20" width="17.54" height="1.994"/>
			<rect x="123.814" y="87.129" fill="#231F20" width="17.54" height="1.994"/>
			<rect x="123.814" y="90.718" fill="#231F20" width="17.54" height="1.995"/>
		</g>
		<g>
			<path fill="#231F20" d="M193.774,78.486v-1.995h-34.722c-0.362,0.645-0.686,1.311-0.978,1.995H193.774z"/>
			<path fill="#231F20" d="M174.112,85.666c0.165-0.726,0.486-1.385,0.9-1.994h-18.364c-0.094,0.654-0.154,1.319-0.188,1.994
				H174.112z"/>
			<path fill="#231F20" d="M176.588,82.076c1.552-1.1,3.752-1.764,6.595-1.764c3.051,0,5.96,0.745,8.485,1.764h2.106v-1.994h-36.319
				c-0.213,0.65-0.388,1.316-0.537,1.994H176.588z"/>
			<path fill="#231F20" d="M193.774,67.717v-0.412c-0.997-0.52-2.31-0.992-3.808-1.382h-16.864
				c-1.654,0.461-3.213,1.066-4.668,1.793H193.774z"/>
			<path fill="#231F20" d="M194.015,92.845v-1.759c-1.231,0.688-2.643,1.287-4.149,1.759H194.015z"/>
			<path fill="#231F20" d="M193.774,71.307v-1.994h-28.063c-0.903,0.614-1.754,1.274-2.542,1.994H193.774z"/>
			<path fill="#231F20" d="M193.774,74.896v-1.994h-32.173c-0.56,0.632-1.072,1.301-1.549,1.994H193.774z"/>
			<path fill="#231F20" d="M174.333,89.255c-0.221-0.624-0.364-1.285-0.377-1.994h-17.529c0.015,0.673,0.046,1.342,0.117,1.994
				H174.333z"/>
			<path fill="#231F20" d="M194.015,103.614v-1.994h-31.525c0.707,0.708,1.462,1.378,2.274,1.994H194.015z"/>
			<path fill="#231F20" d="M194.015,105.209h-26.867c1.371,0.792,2.852,1.457,4.419,1.994h19.707
				c1.052-0.338,1.986-0.713,2.741-1.112V105.209z"/>
			<path fill="#231F20" d="M194.015,100.024V98.03h-34.401c0.438,0.693,0.919,1.356,1.437,1.994H194.015z"/>
			<path fill="#231F20" d="M194.015,96.435V94.44h-36.196c0.262,0.684,0.558,1.348,0.89,1.994H194.015z"/>
			<path fill="#231F20" d="M177.719,92.845c-1.076-0.508-1.921-1.188-2.541-1.994h-18.382c0.128,0.68,0.292,1.343,0.481,1.994
				H177.719z"/>
		</g>
		<g>
			<rect x="225.966" y="68.916" fill="#231F20" width="17.534" height="1.994"/>
			<rect x="225.966" y="65.527" fill="#231F20" width="17.534" height="1.793"/>
			<rect x="225.966" y="72.506" fill="#231F20" width="17.534" height="1.994"/>
			<rect x="199.599" y="68.916" fill="#231F20" width="17.533" height="1.994"/>
			<rect x="199.599" y="65.527" fill="#231F20" width="17.533" height="1.793"/>
			<rect x="225.966" y="101.223" fill="#231F20" width="17.534" height="1.994"/>
			<rect x="225.966" y="97.633" fill="#231F20" width="17.534" height="1.994"/>
			<rect x="199.599" y="72.506" fill="#231F20" width="17.533" height="1.994"/>
			<rect x="225.966" y="94.043" fill="#231F20" width="17.534" height="1.994"/>
			<rect x="225.966" y="76.095" fill="#231F20" width="17.534" height="1.995"/>
			<rect x="199.599" y="97.633" fill="#231F20" width="17.533" height="1.994"/>
			<rect x="199.599" y="94.043" fill="#231F20" width="17.533" height="1.994"/>
			<rect x="199.599" y="101.223" fill="#231F20" width="17.533" height="1.994"/>
			<rect x="199.599" y="104.812" fill="#231F20" width="17.533" height="1.994"/>
			<rect x="225.966" y="104.812" fill="#231F20" width="17.534" height="1.994"/>
			<rect x="199.599" y="83.275" fill="#231F20" width="43.901" height="1.994"/>
			<polygon fill="#231F20" points="217.132,92.447 217.132,92.161 225.966,92.161 225.966,92.447 243.5,92.447 243.5,90.453 
				199.599,90.453 199.599,92.447 			"/>
			<rect x="199.599" y="79.685" fill="#231F20" width="43.901" height="1.994"/>
			<rect x="199.599" y="76.095" fill="#231F20" width="17.533" height="1.995"/>
			<rect x="199.599" y="86.863" fill="#231F20" width="43.901" height="1.995"/>
		</g>
	</g>
	<rect x="123.814" y="105.077" fill="#231F20" width="17.54" height="1.994"/>
</g>
</svg>
