<?xml version="1.0" encoding="utf-8"?>
<!-- Generator: Adobe Illustrator 16.0.4, SVG Export Plug-In . SVG Version: 6.00 Build 0)  -->
<!DOCTYPE svg PUBLIC "-//W3C//DTD SVG 1.1//EN" "http://www.w3.org/Graphics/SVG/1.1/DTD/svg11.dtd">
<svg version="1.1" id="Layer_1" xmlns="http://www.w3.org/2000/svg" xmlns:xlink="http://www.w3.org/1999/xlink" x="0px" y="0px"
	 width="150px" height="150px" viewBox="0 0 150 150" enable-background="new 0 0 150 150" xml:space="preserve">
<g>
	<rect x="59.258" y="70.091" fill="#231F20" width="32.674" height="4.322"/>
	<rect x="37.475" y="39.724" fill="#231F20" width="10.894" height="3.602"/>
	<rect x="102.822" y="70.091" fill="#231F20" width="21.787" height="4.322"/>
	<rect x="48.368" y="43.326" fill="#231F20" width="10.89" height="0.722"/>
	<rect x="91.933" y="43.326" fill="#231F20" width="10.89" height="0.722"/>
	<rect x="124.609" y="92.865" fill="#231F20" width="10.891" height="4.323"/>
	<rect x="102.822" y="39.724" fill="#231F20" width="10.894" height="3.602"/>
	<rect x="91.933" y="47.316" fill="#231F20" width="10.89" height="4.323"/>
	<rect x="124.609" y="100.457" fill="#231F20" width="10.891" height="4.323"/>
	<rect x="48.368" y="108.675" fill="#231F20" width="21.781" height="3.697"/>
	<rect x="124.609" y="108.049" fill="#231F20" width="10.891" height="0.626"/>
	<rect x="37.475" y="108.049" fill="#231F20" width="10.894" height="0.626"/>
	<rect x="37.475" y="92.865" fill="#231F20" width="76.241" height="4.323"/>
	<rect x="102.822" y="100.457" fill="#231F20" width="10.894" height="4.323"/>
	<rect x="37.475" y="100.457" fill="#231F20" width="10.894" height="4.323"/>
	<polygon fill="#231F20" points="26.584,65.109 26.584,66.823 48.368,66.823 48.368,65.109 59.258,65.109 59.258,66.823 
		91.933,66.823 91.933,65.109 102.822,65.109 102.822,66.823 124.609,66.823 124.609,65.109 113.716,65.109 113.716,62.5 
		37.475,62.5 37.475,65.109 	"/>
	<rect x="81.042" y="115.641" fill="#231F20" width="21.78" height="3.922"/>
	<rect x="48.368" y="47.316" fill="#231F20" width="10.89" height="4.323"/>
	<rect x="81.042" y="108.675" fill="#231F20" width="21.78" height="3.697"/>
	<rect x="102.822" y="108.049" fill="#231F20" width="10.894" height="0.626"/>
	<rect x="15.694" y="108.049" fill="#231F20" width="10.89" height="0.626"/>
	<rect x="37.475" y="32.436" fill="#231F20" width="10.894" height="4.02"/>
	<rect x="102.822" y="32.436" fill="#231F20" width="10.894" height="4.02"/>
	<rect x="48.368" y="115.641" fill="#231F20" width="21.781" height="3.922"/>
	<rect x="15.694" y="100.457" fill="#231F20" width="10.89" height="4.323"/>
	<rect x="15.694" y="77.682" fill="#231F20" width="119.806" height="4.323"/>
	<rect x="37.475" y="54.908" fill="#231F20" width="76.241" height="4.323"/>
	<rect x="26.584" y="70.091" fill="#231F20" width="21.784" height="4.322"/>
	<polygon fill="#231F20" points="26.584,89.597 26.584,86.888 37.475,86.888 37.475,89.597 113.716,89.597 113.716,86.888 
		124.609,86.888 124.609,89.597 135.5,89.597 135.5,85.273 15.694,85.273 15.694,89.597 	"/>
	<rect x="15.694" y="92.865" fill="#231F20" width="10.89" height="4.323"/>
</g>
</svg>
