<?xml version="1.0" encoding="utf-8"?>
<!-- Generator: Adobe Illustrator 16.0.4, SVG Export Plug-In . SVG Version: 6.00 Build 0)  -->
<!DOCTYPE svg PUBLIC "-//W3C//DTD SVG 1.1//EN" "http://www.w3.org/Graphics/SVG/1.1/DTD/svg11.dtd">
<svg version="1.1" id="Layer_1" xmlns="http://www.w3.org/2000/svg" xmlns:xlink="http://www.w3.org/1999/xlink" x="0px" y="0px"
	 width="500px" height="150px" viewBox="0 0 500 150" enable-background="new 0 0 500 150" xml:space="preserve">
<path fill="#F4F4F0" d="M167.645,64.323c3.093,0,7.11,0.966,10.125,2.09l1.268-0.066v-12.57c-3.021-1.537-7.684-2.755-12.771-2.755
	c-12.246,0-21.195,7.127-22.658,17.164l16.875-0.875C161.859,65.484,164.256,64.323,167.645,64.323z"/>
<path fill="#F4F4F0" d="M179.038,66.919v-0.572l-1.268,0.066C178.216,66.58,178.642,66.749,179.038,66.919z"/>
<path fill="#F4F4F0" d="M162.306,76.67h3.815v1.96c-0.318,0.106-0.848,0.212-1.59,0.212c-3.869,0-7.419-2.703-7.419-7.207
	c0-1.64,0.466-3.125,1.371-4.326l-16.875,0.875c-0.139,0.952-0.235,1.92-0.235,2.921c0,11.022,8.691,19.449,22.522,19.449
	c6.306,0,11.288-1.749,14.096-3.498V68.085h-15.686V76.67z"/>
<polygon fill="#F4F4F0" points="201.3,51.604 185.508,51.604 185.508,66.012 201.3,65.192 "/>
<polygon fill="#F4F4F0" points="199.3,65.192 183.508,66.012 183.508,89.972 211.171,89.972 211.171,76.352 199.3,76.352 "/>
<polygon fill="#F4F4F0" points="234.16,51.604 218.367,51.604 218.367,64.307 234.16,63.488 "/>
<polygon fill="#F4F4F0" points="216.367,64.307 216.367,89.972 232.16,89.972 232.16,63.488 "/>
<polygon fill="#F4F4F0" points="276.556,51.604 239.354,51.604 239.354,63.218 276.556,61.288 "/>
<polygon fill="#F4F4F0" points="237.354,63.218 237.354,64.641 248.059,64.641 248.059,89.972 263.851,89.972 263.851,64.641 
	274.556,64.641 274.556,61.288 "/>
<path fill="#F4F4F0" d="M313.497,53.247c-2.438-1.272-6.942-2.226-11.288-2.226c-8.862,0-16.001,3.9-19.669,9.957l30.957-1.606
	V53.247z"/>
<path fill="#F4F4F0" d="M293.638,71.106c0-3.551,2.915-6.147,8.32-6.147c3.55,0,6.889,1.113,9.539,2.438v-8.025l-30.957,1.606
	c-1.728,2.853-2.694,6.179-2.694,9.81c0,11.394,9.38,19.767,22.204,19.767c4.558,0,9.168-1.06,11.659-2.385V74.656
	c-2.649,1.484-6.2,2.544-9.75,2.544C296.552,77.2,293.638,74.656,293.638,71.106z"/>
<polygon fill="#F4F4F0" points="334.91,51.604 319.118,51.604 319.118,59.08 334.91,58.261 "/>
<polygon fill="#F4F4F0" points="358.651,51.604 342.859,51.604 342.859,57.849 358.651,57.029 "/>
<polygon fill="#F4F4F0" points="340.859,57.849 340.859,63.475 332.91,63.475 332.91,58.261 317.118,59.08 317.118,89.972 
	332.91,89.972 332.91,75.981 340.859,75.981 340.859,89.972 356.651,89.972 356.651,57.029 "/>
</svg>
