<?xml version="1.0" encoding="utf-8"?>
<!-- Generator: Adobe Illustrator 16.0.4, SVG Export Plug-In . SVG Version: 6.00 Build 0)  -->
<!DOCTYPE svg PUBLIC "-//W3C//DTD SVG 1.1//EN" "http://www.w3.org/Graphics/SVG/1.1/DTD/svg11.dtd">
<svg version="1.1" id="Layer_1" xmlns="http://www.w3.org/2000/svg" xmlns:xlink="http://www.w3.org/1999/xlink" x="0px" y="0px"
	 width="252px" height="54px" viewBox="0 0 252 54" enable-background="new 0 0 252 54" xml:space="preserve">
<path fill="#FE687A" d="M51.635,11.128V9.135H21.623c-0.921,0.613-1.796,1.271-2.601,1.993H51.635z"/>
<path fill="#FE687A" d="M47.248,7.538c-1.425-0.687-3.146-1.304-5.074-1.793H25.141c-1.686,0.46-3.272,1.063-4.753,1.793H47.248z"/>
<path fill="#FE687A" d="M39.508,19.903c2.483,0.457,5.015,1.194,7.083,1.993h1.041v-1.993H39.508z"/>
<path fill="#FE687A" d="M47.631,14.719v-1.994H13.419c-0.571,0.633-1.091,1.302-1.578,1.994H47.631z"/>
<rect x="29.268" y="27.082" fill="#FE687A" width="17.42" height="1.994"/>
<rect x="31.27" y="30.671" fill="#FE687A" width="17.42" height="1.995"/>
<rect x="31.27" y="23.607" fill="#FE687A" width="17.42" height="1.88"/>
<path fill="#FE687A" d="M47.631,18.307v-1.994h-36.82c-0.371,0.645-0.705,1.311-1.005,1.994H47.631z"/>
<path fill="#FE687A" d="M49.691,43.434v-1.994H14.849c0.7,0.711,1.452,1.378,2.266,1.994H49.691z"/>
<path fill="#FE687A" d="M48.69,36.255v-1.993H35.507v1.06c-0.351,0.114-0.944,0.237-1.768,0.237c-1.662,0-3.268-0.455-4.615-1.297
	H9.301c0.249,0.685,0.532,1.35,0.851,1.993H48.69z"/>
<path fill="#FE687A" d="M48.69,39.846v-1.994H11.025c0.425,0.692,0.896,1.354,1.406,1.994H48.69z"/>
<path fill="#FE687A" d="M18.516,45.03c1.385,0.791,2.898,1.456,4.52,1.993h20.331c1.862-0.586,3.443-1.276,4.706-1.993H18.516z"/>
<path fill="#FE687A" d="M27.791,21.896c0.939-0.903,2.185-1.577,3.694-1.993h-22.3c-0.222,0.649-0.408,1.315-0.567,1.993H27.791z"/>
<path fill="#FE687A" d="M27.289,32.666c-0.489-0.585-0.894-1.25-1.193-1.995H8.354c0.115,0.681,0.263,1.345,0.441,1.995H27.289z"/>
<path fill="#FE687A" d="M25.773,25.487c0.172-0.712,0.443-1.377,0.799-1.994H8.319c-0.103,0.653-0.177,1.317-0.221,1.994H25.773z"/>
<path fill="#FE687A" d="M23.642,29.076c-0.086-0.486-0.139-0.991-0.139-1.523c0-0.162,0.034-0.312,0.042-0.471H6.025
	c0.004,0.674,0.038,1.34,0.1,1.994H23.642z"/>
<rect x="54.858" y="16.413" fill="#FE687A" width="17.535" height="1.994"/>
<rect x="54.858" y="23.592" fill="#FE687A" width="17.535" height="1.995"/>
<rect x="54.858" y="20.003" fill="#FE687A" width="17.535" height="1.994"/>
<rect x="54.858" y="12.823" fill="#FE687A" width="17.535" height="1.995"/>
<rect x="54.858" y="5.846" fill="#FE687A" width="17.535" height="1.793"/>
<rect x="58.862" y="9.234" fill="#FE687A" width="17.535" height="1.994"/>
<rect x="54.858" y="34.36" fill="#FE687A" width="30.724" height="1.993"/>
<rect x="54.858" y="45.13" fill="#FE687A" width="30.724" height="1.994"/>
<rect x="52.856" y="27.182" fill="#FE687A" width="17.535" height="1.994"/>
<rect x="55.859" y="41.54" fill="#FE687A" width="30.724" height="1.994"/>
<rect x="54.858" y="37.95" fill="#FE687A" width="30.724" height="1.994"/>
<rect x="54.858" y="30.771" fill="#FE687A" width="17.535" height="1.994"/>
<rect x="89.127" y="16.312" fill="#FE687A" width="17.536" height="1.994"/>
<rect x="89.127" y="19.903" fill="#FE687A" width="17.536" height="1.993"/>
<rect x="89.127" y="23.493" fill="#FE687A" width="17.536" height="1.994"/>
<rect x="89.127" y="5.745" fill="#FE687A" width="17.536" height="1.793"/>
<rect x="93.131" y="9.135" fill="#FE687A" width="17.536" height="1.993"/>
<rect x="89.127" y="12.725" fill="#FE687A" width="17.536" height="1.994"/>
<rect x="89.127" y="34.262" fill="#FE687A" width="17.536" height="1.993"/>
<rect x="89.127" y="45.03" fill="#FE687A" width="17.536" height="1.993"/>
<rect x="90.128" y="41.439" fill="#FE687A" width="17.536" height="1.994"/>
<rect x="89.127" y="30.671" fill="#FE687A" width="17.536" height="1.995"/>
<rect x="87.125" y="27.082" fill="#FE687A" width="17.536" height="1.994"/>
<rect x="89.127" y="37.85" fill="#FE687A" width="17.536" height="1.994"/>
<rect x="111.93" y="16.312" fill="#FE687A" width="41.314" height="1.994"/>
<rect x="111.93" y="12.723" fill="#FE687A" width="41.314" height="1.994"/>
<rect x="123.814" y="19.901" fill="#FE687A" width="17.54" height="1.995"/>
<rect x="115.934" y="9.133" fill="#FE687A" width="41.314" height="1.994"/>
<rect x="123.814" y="23.491" fill="#FE687A" width="17.54" height="1.994"/>
<rect x="111.93" y="5.744" fill="#FE687A" width="41.314" height="1.793"/>
<rect x="123.814" y="37.85" fill="#FE687A" width="17.54" height="1.994"/>
<rect x="124.815" y="41.439" fill="#FE687A" width="17.54" height="1.994"/>
<rect x="123.814" y="34.262" fill="#FE687A" width="17.54" height="1.993"/>
<rect x="121.812" y="27.082" fill="#FE687A" width="17.54" height="1.994"/>
<rect x="123.814" y="30.671" fill="#FE687A" width="17.54" height="1.995"/>
<path fill="#FE687A" d="M193.773,18.439v-1.995h-34.722c-0.362,0.645-0.686,1.311-0.978,1.995H193.773z"/>
<path fill="#FE687A" d="M174.111,25.619c0.166-0.727,0.486-1.385,0.9-1.994h-18.363c-0.094,0.654-0.154,1.319-0.188,1.994H174.111z"
	/>
<path fill="#FE687A" d="M176.588,22.029c1.553-1.1,3.752-1.764,6.596-1.764c3.051,0,5.959,0.744,8.484,1.764h2.105v-1.994h-36.318
	c-0.213,0.65-0.389,1.316-0.537,1.994H176.588z"/>
<path fill="#FE687A" d="M193.773,7.67V7.258c-0.996-0.52-2.31-0.992-3.808-1.382h-16.864c-1.653,0.461-3.213,1.066-4.668,1.793
	L193.773,7.67L193.773,7.67z"/>
<path fill="#FE687A" d="M194.016,32.799v-1.76c-1.231,0.688-2.644,1.287-4.149,1.76H194.016z"/>
<path fill="#FE687A" d="M197.777,11.26V9.266h-28.062c-0.902,0.614-1.754,1.274-2.542,1.994H197.777z"/>
<path fill="#FE687A" d="M193.773,14.85v-1.994h-32.172c-0.561,0.632-1.072,1.301-1.55,1.994H193.773z"/>
<path fill="#FE687A" d="M172.331,29.208c-0.222-0.624-0.364-1.284-0.377-1.994h-17.529c0.015,0.673,0.046,1.343,0.117,1.994H172.331
	z"/>
<path fill="#FE687A" d="M195.017,43.567v-1.994h-31.525c0.707,0.708,1.462,1.378,2.273,1.994H195.017z"/>
<path fill="#FE687A" d="M194.016,45.162h-26.867c1.371,0.792,2.852,1.457,4.418,1.994h19.707c1.053-0.338,1.986-0.713,2.742-1.112
	V45.162z"/>
<path fill="#FE687A" d="M194.016,39.977v-1.994h-34.402c0.438,0.693,0.92,1.356,1.438,1.994H194.016z"/>
<path fill="#FE687A" d="M194.016,36.389v-1.996h-36.197c0.263,0.685,0.559,1.349,0.891,1.994h35.307V36.389z"/>
<path fill="#FE687A" d="M177.719,32.799c-1.076-0.509-1.921-1.188-2.541-1.994h-18.382c0.128,0.68,0.292,1.342,0.481,1.994H177.719z
	"/>
<rect x="229.97" y="8.869" fill="#FE687A" width="17.534" height="1.994"/>
<rect x="225.966" y="5.48" fill="#FE687A" width="17.534" height="1.793"/>
<rect x="225.966" y="12.459" fill="#FE687A" width="17.534" height="1.994"/>
<rect x="203.604" y="8.869" fill="#FE687A" width="17.532" height="1.994"/>
<rect x="199.6" y="5.48" fill="#FE687A" width="17.532" height="1.793"/>
<rect x="226.967" y="41.176" fill="#FE687A" width="17.534" height="1.994"/>
<rect x="225.966" y="37.586" fill="#FE687A" width="17.534" height="1.994"/>
<rect x="199.6" y="12.459" fill="#FE687A" width="17.532" height="1.994"/>
<rect x="225.966" y="33.996" fill="#FE687A" width="17.534" height="1.994"/>
<rect x="225.966" y="16.049" fill="#FE687A" width="17.534" height="1.994"/>
<rect x="199.6" y="37.586" fill="#FE687A" width="17.532" height="1.994"/>
<rect x="199.6" y="33.996" fill="#FE687A" width="17.532" height="1.994"/>
<rect x="200.601" y="41.176" fill="#FE687A" width="17.532" height="1.994"/>
<rect x="199.6" y="44.766" fill="#FE687A" width="17.532" height="1.994"/>
<rect x="225.966" y="44.766" fill="#FE687A" width="17.534" height="1.994"/>
<rect x="199.6" y="23.229" fill="#FE687A" width="43.9" height="1.994"/>
<polygon fill="#FE687A" points="217.132,32.4 217.132,32.114 225.966,32.114 225.966,32.4 243.5,32.4 243.5,30.406 199.6,30.406 
	199.6,32.4 "/>
<rect x="199.6" y="19.639" fill="#FE687A" width="43.9" height="1.994"/>
<rect x="199.6" y="16.049" fill="#FE687A" width="17.532" height="1.994"/>
<rect x="197.598" y="26.816" fill="#FE687A" width="43.9" height="1.994"/>
<rect x="123.814" y="45.03" fill="#FE687A" width="17.54" height="1.993"/>
</svg>
