<?xml version="1.0" encoding="utf-8"?>
<!-- Generator: Adobe Illustrator 16.0.4, SVG Export Plug-In . SVG Version: 6.00 Build 0)  -->
<!DOCTYPE svg PUBLIC "-//W3C//DTD SVG 1.1//EN" "http://www.w3.org/Graphics/SVG/1.1/DTD/svg11.dtd">
<svg version="1.1" id="Layer_1" xmlns="http://www.w3.org/2000/svg" xmlns:xlink="http://www.w3.org/1999/xlink" x="0px" y="0px"
	 width="325px" height="150px" viewBox="0 0 325 150" enable-background="new 0 0 325 150" xml:space="preserve">
<g>
	<path fill="#231F20" d="M63.315,58.559v-2.075H32.088c-0.959,0.64-1.871,1.323-2.707,2.075H63.315z"/>
	<path fill="#231F20" d="M62.917,54.823c-1.483-0.713-3.273-1.355-5.28-1.864H39.915c-1.754,0.479-3.404,1.107-4.948,1.864H62.917z"
		/>
	<path fill="#231F20" d="M54.863,67.688c2.584,0.477,5.218,1.245,7.37,2.075h1.083v-2.075H54.863z"/>
	<path fill="#231F20" d="M63.315,62.293v-2.075H27.717c-0.593,0.658-1.135,1.355-1.641,2.075H63.315z"/>
	<rect x="46.292" y="75.158" fill="#231F20" width="18.124" height="2.076"/>
	<rect x="46.292" y="78.895" fill="#231F20" width="18.124" height="2.075"/>
	<rect x="46.292" y="71.543" fill="#231F20" width="18.124" height="1.955"/>
	<path fill="#231F20" d="M63.315,66.028v-2.075H25.004c-0.386,0.671-0.733,1.363-1.044,2.075H63.315z"/>
	<path fill="#231F20" d="M64.416,92.174V90.1H28.165c0.728,0.739,1.511,1.433,2.357,2.074H64.416z"/>
	<path fill="#231F20" d="M64.416,84.704v-2.075H50.7v1.103c-0.365,0.12-0.982,0.247-1.84,0.247c-1.728,0-3.399-0.474-4.802-1.35
		H23.433c0.258,0.71,0.553,1.404,0.885,2.075H64.416z"/>
	<path fill="#231F20" d="M64.416,88.439v-2.075H25.228c0.441,0.72,0.932,1.41,1.462,2.075H64.416z"/>
	<path fill="#231F20" d="M33.021,93.834c1.439,0.824,3.016,1.515,4.701,2.075h21.156c1.936-0.609,3.583-1.329,4.896-2.075H33.021z"
		/>
	<path fill="#231F20" d="M42.67,69.763c0.979-0.94,2.274-1.64,3.845-2.075H23.311c-0.23,0.678-0.423,1.37-0.59,2.075H42.67z"/>
	<path fill="#231F20" d="M42.148,80.97c-0.509-0.61-0.931-1.301-1.242-2.075H22.449c0.12,0.706,0.272,1.397,0.457,2.075H42.148z"/>
	<path fill="#231F20" d="M40.573,73.499c0.178-0.741,0.46-1.433,0.83-2.075H22.41c-0.107,0.681-0.184,1.372-0.229,2.075H40.573z"/>
	<path fill="#231F20" d="M40.437,77.234c-0.087-0.506-0.143-1.032-0.143-1.586c0-0.169,0.036-0.325,0.044-0.49H22.108
		c0.003,0.702,0.039,1.396,0.104,2.076H40.437z"/>
</g>
<g>
	<rect x="70.835" y="64.057" fill="#231F20" width="18.244" height="2.075"/>
	<rect x="70.835" y="71.527" fill="#231F20" width="18.244" height="2.075"/>
	<rect x="70.835" y="67.792" fill="#231F20" width="18.244" height="2.075"/>
	<rect x="70.835" y="60.322" fill="#231F20" width="18.244" height="2.075"/>
	<rect x="70.835" y="53.063" fill="#231F20" width="18.244" height="1.864"/>
	<rect x="70.835" y="56.587" fill="#231F20" width="18.244" height="2.075"/>
	<rect x="70.835" y="82.733" fill="#231F20" width="31.968" height="2.074"/>
	<rect x="70.835" y="93.938" fill="#231F20" width="31.968" height="2.074"/>
	<rect x="70.835" y="75.262" fill="#231F20" width="18.244" height="2.076"/>
	<rect x="70.835" y="90.203" fill="#231F20" width="31.968" height="2.075"/>
	<rect x="70.835" y="86.468" fill="#231F20" width="31.968" height="2.075"/>
	<rect x="70.835" y="78.998" fill="#231F20" width="18.244" height="2.075"/>
</g>
<g>
	<path fill="#231F20" d="M186.208,66.166v-2.075H150.08c-0.374,0.671-0.713,1.363-1.017,2.075H186.208z"/>
	<path fill="#231F20" d="M165.75,73.636c0.173-0.755,0.507-1.441,0.938-2.075h-19.109c-0.098,0.681-0.159,1.373-0.194,2.075H165.75z
		"/>
	<path fill="#231F20" d="M168.326,69.901c1.614-1.145,3.903-1.835,6.863-1.835c3.174,0,6.199,0.775,8.828,1.835h2.19v-2.075h-37.789
		c-0.221,0.676-0.402,1.37-0.56,2.075H168.326z"/>
	<path fill="#231F20" d="M186.208,54.961v-0.428c-1.036-0.542-2.402-1.033-3.96-1.438h-17.549c-1.722,0.48-3.341,1.109-4.855,1.866
		H186.208z"/>
	<path fill="#231F20" d="M186.458,81.105v-1.829c-1.279,0.717-2.748,1.34-4.317,1.829H186.458z"/>
	<path fill="#231F20" d="M186.208,58.696v-2.075h-29.199c-0.938,0.639-1.825,1.326-2.644,2.075H186.208z"/>
	<path fill="#231F20" d="M186.208,62.431v-2.075h-33.474c-0.584,0.658-1.116,1.354-1.611,2.075H186.208z"/>
	<path fill="#231F20" d="M165.979,77.37c-0.229-0.648-0.379-1.336-0.392-2.074h-18.239c0.017,0.7,0.049,1.396,0.123,2.074H165.979z"
		/>
	<path fill="#231F20" d="M186.458,92.311v-2.075h-32.802c0.737,0.739,1.522,1.437,2.367,2.075H186.458z"/>
	<path fill="#231F20" d="M186.458,93.971h-27.953c1.427,0.823,2.967,1.518,4.598,2.078h20.504c1.094-0.354,2.068-0.746,2.852-1.161
		V93.971z"/>
	<path fill="#231F20" d="M186.458,88.575V86.5h-35.794c0.455,0.724,0.958,1.414,1.496,2.075H186.458z"/>
	<path fill="#231F20" d="M186.458,84.841v-2.075h-37.66c0.272,0.713,0.58,1.403,0.924,2.075H186.458z"/>
	<path fill="#231F20" d="M169.503,81.105c-1.12-0.528-1.999-1.235-2.645-2.075h-19.124c0.133,0.707,0.302,1.397,0.499,2.075H169.503
		z"/>
</g>
<g>
	<rect x="219.705" y="56.208" fill="#231F20" width="18.244" height="2.075"/>
	<rect x="219.705" y="52.684" fill="#231F20" width="18.244" height="1.864"/>
	<rect x="219.705" y="59.943" fill="#231F20" width="18.244" height="2.075"/>
	<rect x="192.268" y="56.208" fill="#231F20" width="18.246" height="2.075"/>
	<rect x="192.268" y="52.684" fill="#231F20" width="18.246" height="1.864"/>
	<rect x="219.705" y="89.823" fill="#231F20" width="18.244" height="2.075"/>
	<rect x="219.705" y="86.089" fill="#231F20" width="18.244" height="2.075"/>
	<rect x="192.268" y="59.943" fill="#231F20" width="18.246" height="2.075"/>
	<rect x="219.705" y="82.354" fill="#231F20" width="18.244" height="2.075"/>
	<rect x="219.705" y="63.678" fill="#231F20" width="18.244" height="2.075"/>
	<rect x="192.268" y="86.089" fill="#231F20" width="18.246" height="2.075"/>
	<rect x="192.268" y="82.354" fill="#231F20" width="18.246" height="2.075"/>
	<rect x="192.268" y="89.823" fill="#231F20" width="18.246" height="2.075"/>
	<rect x="192.268" y="93.559" fill="#231F20" width="18.246" height="2.075"/>
	<rect x="219.705" y="93.559" fill="#231F20" width="18.244" height="2.075"/>
	<rect x="192.268" y="71.148" fill="#231F20" width="45.682" height="2.075"/>
	<polygon fill="#231F20" points="210.514,80.693 210.514,80.396 219.705,80.396 219.705,80.693 237.949,80.693 237.949,78.619 
		192.268,78.619 192.268,80.693 	"/>
	<rect x="192.268" y="67.413" fill="#231F20" width="45.682" height="2.075"/>
	<rect x="192.268" y="63.678" fill="#231F20" width="18.246" height="2.075"/>
	<rect x="192.268" y="74.883" fill="#231F20" width="45.682" height="2.076"/>
</g>
<g>
	<g>
		<rect x="101.05" y="63.954" fill="#231F20" width="42.988" height="2.075"/>
		<rect x="101.05" y="60.218" fill="#231F20" width="42.988" height="2.075"/>
		<rect x="113.416" y="67.688" fill="#231F20" width="18.25" height="2.075"/>
		<rect x="101.05" y="56.483" fill="#231F20" width="42.988" height="2.075"/>
		<rect x="113.416" y="71.423" fill="#231F20" width="18.25" height="2.075"/>
		<rect x="101.05" y="52.956" fill="#231F20" width="42.988" height="1.867"/>
		<rect x="113.416" y="86.364" fill="#231F20" width="18.25" height="2.075"/>
		<rect x="113.416" y="90.1" fill="#231F20" width="18.25" height="2.074"/>
		<rect x="113.416" y="82.629" fill="#231F20" width="18.25" height="2.075"/>
		<rect x="113.416" y="75.158" fill="#231F20" width="18.25" height="2.076"/>
		<rect x="113.416" y="78.895" fill="#231F20" width="18.25" height="2.075"/>
	</g>
	<rect x="113.416" y="93.834" fill="#231F20" width="18.25" height="2.075"/>
</g>
<g>
	<rect x="263.936" y="71.933" fill="#231F20" width="16.075" height="2.127"/>
	<rect x="253.219" y="56.993" fill="#231F20" width="5.359" height="1.772"/>
	<rect x="285.369" y="71.933" fill="#231F20" width="10.719" height="2.127"/>
	<rect x="258.578" y="58.765" fill="#231F20" width="5.357" height="0.355"/>
	<rect x="280.011" y="58.765" fill="#231F20" width="5.358" height="0.355"/>
	<rect x="296.088" y="83.137" fill="#231F20" width="5.357" height="2.127"/>
	<rect x="285.369" y="56.993" fill="#231F20" width="5.359" height="1.772"/>
	<rect x="280.011" y="60.728" fill="#231F20" width="5.358" height="2.127"/>
	<rect x="296.088" y="86.871" fill="#231F20" width="5.357" height="2.127"/>
	<rect x="258.578" y="90.914" fill="#231F20" width="10.715" height="1.82"/>
	<rect x="296.088" y="90.607" fill="#231F20" width="5.357" height="0.307"/>
	<rect x="253.219" y="90.607" fill="#231F20" width="5.359" height="0.307"/>
	<rect x="253.219" y="83.137" fill="#231F20" width="37.51" height="2.127"/>
	<rect x="285.369" y="86.871" fill="#231F20" width="5.359" height="2.127"/>
	<rect x="253.219" y="86.871" fill="#231F20" width="5.359" height="2.127"/>
	<polygon fill="#231F20" points="247.861,69.481 247.861,70.325 258.578,70.325 258.578,69.481 263.936,69.481 263.936,70.325 
		280.011,70.325 280.011,69.481 285.369,69.481 285.369,70.325 296.088,70.325 296.088,69.481 290.729,69.481 290.729,68.198 
		253.219,68.198 253.219,69.481 	"/>
	<rect x="274.652" y="94.342" fill="#231F20" width="10.717" height="1.93"/>
	<rect x="258.578" y="60.728" fill="#231F20" width="5.357" height="2.127"/>
	<rect x="274.652" y="90.914" fill="#231F20" width="10.717" height="1.82"/>
	<rect x="285.369" y="90.607" fill="#231F20" width="5.359" height="0.307"/>
	<rect x="242.504" y="90.607" fill="#231F20" width="5.357" height="0.307"/>
	<rect x="253.219" y="53.407" fill="#231F20" width="5.359" height="1.978"/>
	<rect x="285.369" y="53.407" fill="#231F20" width="5.359" height="1.978"/>
	<rect x="258.578" y="94.342" fill="#231F20" width="10.715" height="1.93"/>
	<rect x="242.504" y="86.871" fill="#231F20" width="5.357" height="2.127"/>
	<rect x="242.504" y="75.668" fill="#231F20" width="58.941" height="2.125"/>
	<rect x="253.219" y="64.462" fill="#231F20" width="37.51" height="2.127"/>
	<rect x="247.861" y="71.933" fill="#231F20" width="10.717" height="2.127"/>
	<polygon fill="#231F20" points="247.861,81.529 247.861,80.195 253.219,80.195 253.219,81.529 290.729,81.529 290.729,80.195 
		296.088,80.195 296.088,81.529 301.445,81.529 301.445,79.402 242.504,79.402 242.504,81.529 	"/>
	<rect x="242.504" y="83.137" fill="#231F20" width="5.357" height="2.127"/>
</g>
</svg>
