<?xml version="1.0" encoding="utf-8"?>
<!-- Generator: Adobe Illustrator 16.0.4, SVG Export Plug-In . SVG Version: 6.00 Build 0)  -->
<!DOCTYPE svg PUBLIC "-//W3C//DTD SVG 1.1//EN" "http://www.w3.org/Graphics/SVG/1.1/DTD/svg11.dtd">
<svg version="1.1" id="Layer_1" xmlns="http://www.w3.org/2000/svg" xmlns:xlink="http://www.w3.org/1999/xlink" x="0px" y="0px"
	 width="248.167px" height="73.375px" viewBox="0 0 248.167 73.375" enable-background="new 0 0 248.167 73.375"
	 xml:space="preserve">
<g>
	<path fill="#F4F4F0" d="M41.342,28.656c3.093,0,7.11,0.966,10.125,2.09l1.268-0.066V18.11c-3.021-1.537-7.684-2.755-12.771-2.755
		c-12.246,0-21.195,7.127-22.658,17.164l16.875-0.875C35.556,29.817,37.953,28.656,41.342,28.656z"/>
	<path fill="#F4F4F0" d="M52.704,31.096v-0.572l-1.268,0.066C51.882,30.756,52.308,30.925,52.704,31.096z"/>
	<path fill="#F4F4F0" d="M35.972,40.848h3.815v1.959c-0.318,0.105-0.848,0.213-1.59,0.213c-3.869,0-7.419-2.703-7.419-7.208
		c0-1.64,0.466-3.125,1.371-4.326l-16.875,0.875c-0.139,0.952-0.235,1.92-0.235,2.921c0,11.022,8.691,19.448,22.522,19.448
		c6.306,0,11.288-1.748,14.096-3.498v-18.97H35.972V40.848z"/>
	<polygon fill="#F4F4F0" points="74.997,15.938 59.205,15.938 59.205,30.344 74.997,29.525 	"/>
	<polygon fill="#F4F4F0" points="72.966,29.369 57.174,30.188 57.174,54.148 84.837,54.148 84.837,40.529 72.966,40.529 	"/>
	<polygon fill="#F4F4F0" points="107.857,15.938 92.064,15.938 92.064,28.64 107.857,27.821 	"/>
	<polygon fill="#F4F4F0" points="90.033,28.484 90.033,54.148 105.826,54.148 105.826,27.665 	"/>
	<polygon fill="#F4F4F0" points="150.253,15.938 113.05,15.938 113.05,27.551 150.253,25.621 	"/>
	<polygon fill="#F4F4F0" points="111.02,27.395 111.02,28.817 121.725,28.817 121.725,54.148 129.621,58.01 137.518,54.148 
		137.518,28.817 148.223,28.817 148.223,25.465 	"/>
	<path fill="#F4F4F0" d="M187.193,17.58c-2.438-1.272-6.941-2.226-11.287-2.226c-8.861,0-16.002,3.9-19.67,9.957l30.957-1.606V17.58
		z"/>
	<path fill="#F4F4F0" d="M167.305,35.283c0-3.551,2.913-6.147,8.319-6.147c3.549,0,6.89,1.113,9.539,2.438v-8.025l-30.957,1.606
		c-1.729,2.853-2.694,6.179-2.694,9.81c0,11.395,9.381,19.768,22.204,19.768c4.558,0,9.168-1.061,11.658-2.385V38.833
		c-2.647,1.483-6.199,2.545-9.75,2.545C170.218,41.377,167.305,38.833,167.305,35.283z"/>
	<polygon fill="#F4F4F0" points="208.607,15.938 192.814,15.938 192.814,23.413 208.607,22.594 	"/>
	<polygon fill="#F4F4F0" points="232.348,15.938 216.557,15.938 216.557,22.181 232.348,21.362 	"/>
	<polygon fill="#F4F4F0" points="214.525,22.025 214.525,27.651 206.576,27.651 206.576,22.438 190.785,23.257 190.785,54.148 
		206.576,54.148 206.576,40.159 214.525,40.159 214.525,54.148 230.316,54.148 230.316,21.206 	"/>
</g>
</svg>
