<?xml version="1.0" encoding="utf-8"?>
<!-- Generator: Adobe Illustrator 16.0.4, SVG Export Plug-In . SVG Version: 6.00 Build 0)  -->
<!DOCTYPE svg PUBLIC "-//W3C//DTD SVG 1.1//EN" "http://www.w3.org/Graphics/SVG/1.1/DTD/svg11.dtd">
<svg version="1.1" id="Layer_1" xmlns="http://www.w3.org/2000/svg" xmlns:xlink="http://www.w3.org/1999/xlink" x="0px" y="0px"
	 width="137.5px" height="29.5px" viewBox="33.25 51.25 137.5 29.5" enable-background="new 33.25 51.25 137.5 29.5"
	 xml:space="preserve">
<g>
	<g>
		<g>
			<path fill="#231F20" d="M58.637,57.481V56.38H42.071c-0.508,0.339-0.991,0.701-1.436,1.101H58.637z"/>
			<path fill="#231F20" d="M58.426,55.5c-0.787-0.379-1.737-0.72-2.8-0.99h-9.402c-0.93,0.254-1.806,0.587-2.624,0.99H58.426z"/>
			<path fill="#231F20" d="M54.153,62.324c1.371,0.252,2.769,0.66,3.91,1.101h0.574v-1.101H54.153z"/>
			<path fill="#231F20" d="M58.637,59.462v-1.101H39.753c-0.315,0.35-0.602,0.719-0.871,1.101H58.637z"/>
			<rect x="49.606" y="66.287" fill="#231F20" width="9.615" height="1.101"/>
			<rect x="49.606" y="68.268" fill="#231F20" width="9.615" height="1.102"/>
			<rect x="49.606" y="64.369" fill="#231F20" width="9.615" height="1.037"/>
			<path fill="#231F20" d="M58.637,61.443v-1.101H38.314c-0.205,0.355-0.389,0.723-0.555,1.101H58.637z"/>
			<path fill="#231F20" d="M59.222,75.312v-1.101H39.99c0.387,0.392,0.802,0.76,1.251,1.101H59.222z"/>
			<path fill="#231F20" d="M59.222,71.35v-1.101h-7.276v0.585c-0.194,0.063-0.521,0.131-0.976,0.131
				c-0.917,0-1.804-0.251-2.547-0.716H37.48c0.137,0.378,0.293,0.745,0.47,1.101H59.222z"/>
			<path fill="#231F20" d="M59.222,73.331V72.23h-20.79c0.234,0.383,0.495,0.748,0.776,1.101H59.222z"/>
			<path fill="#231F20" d="M42.567,76.193c0.764,0.437,1.6,0.804,2.495,1.101h11.222c1.028-0.323,1.9-0.705,2.598-1.101H42.567z"/>
			<path fill="#231F20" d="M47.686,63.425c0.519-0.499,1.206-0.871,2.039-1.101H37.417c-0.123,0.358-0.225,0.726-0.313,1.101H47.686
				z"/>
			<path fill="#231F20" d="M47.409,69.369c-0.27-0.323-0.493-0.69-0.658-1.102h-9.792c0.063,0.375,0.145,0.742,0.243,1.102H47.409z"
				/>
			<path fill="#231F20" d="M46.572,65.406c0.095-0.393,0.245-0.76,0.441-1.101H36.938c-0.057,0.361-0.098,0.728-0.122,1.101H46.572z
				"/>
			<path fill="#231F20" d="M46.501,67.388c-0.047-0.269-0.076-0.548-0.076-0.842c0-0.089,0.019-0.172,0.023-0.259h-9.671
				c0.002,0.371,0.021,0.739,0.055,1.101H46.501z"/>
		</g>
		<g>
			<rect x="62.626" y="60.398" fill="#231F20" width="9.679" height="1.101"/>
			<rect x="62.626" y="64.36" fill="#231F20" width="9.679" height="1.101"/>
			<rect x="62.626" y="62.379" fill="#231F20" width="9.679" height="1.101"/>
			<rect x="62.626" y="58.417" fill="#231F20" width="9.679" height="1.101"/>
			<rect x="62.626" y="54.565" fill="#231F20" width="9.679" height="0.989"/>
			<rect x="62.626" y="56.435" fill="#231F20" width="9.679" height="1.101"/>
			<rect x="62.626" y="70.304" fill="#231F20" width="16.958" height="1.102"/>
			<rect x="62.626" y="76.248" fill="#231F20" width="16.958" height="1.102"/>
			<rect x="62.626" y="66.342" fill="#231F20" width="9.679" height="1.101"/>
			<rect x="62.626" y="74.267" fill="#231F20" width="16.958" height="1.102"/>
			<rect x="62.626" y="72.285" fill="#231F20" width="16.958" height="1.102"/>
			<rect x="62.626" y="68.323" fill="#231F20" width="9.679" height="1.101"/>
		</g>
		<g>
			<rect x="81.542" y="60.343" fill="#231F20" width="9.679" height="1.101"/>
			<rect x="81.542" y="62.324" fill="#231F20" width="9.679" height="1.101"/>
			<rect x="81.542" y="64.306" fill="#231F20" width="9.679" height="1.101"/>
			<rect x="81.542" y="54.51" fill="#231F20" width="9.679" height="0.99"/>
			<rect x="81.542" y="56.38" fill="#231F20" width="9.679" height="1.101"/>
			<rect x="81.542" y="58.361" fill="#231F20" width="9.679" height="1.101"/>
			<rect x="81.542" y="70.249" fill="#231F20" width="9.679" height="1.101"/>
			<rect x="81.542" y="76.193" fill="#231F20" width="9.679" height="1.101"/>
			<rect x="81.542" y="74.212" fill="#231F20" width="9.679" height="1.101"/>
			<rect x="81.542" y="68.268" fill="#231F20" width="9.679" height="1.102"/>
			<rect x="81.542" y="66.287" fill="#231F20" width="9.679" height="1.101"/>
			<rect x="81.542" y="72.23" fill="#231F20" width="9.679" height="1.101"/>
		</g>
		<g>
			<rect x="94.128" y="60.342" fill="#231F20" width="22.804" height="1.101"/>
			<rect x="94.128" y="58.361" fill="#231F20" width="22.804" height="1.101"/>
			<rect x="100.688" y="62.323" fill="#231F20" width="9.682" height="1.101"/>
			<rect x="94.128" y="56.379" fill="#231F20" width="22.804" height="1.101"/>
			<rect x="100.688" y="64.305" fill="#231F20" width="9.682" height="1.101"/>
			<rect x="94.128" y="54.509" fill="#231F20" width="22.804" height="0.99"/>
			<rect x="100.688" y="72.23" fill="#231F20" width="9.682" height="1.101"/>
			<rect x="100.688" y="74.212" fill="#231F20" width="9.682" height="1.101"/>
			<rect x="100.688" y="70.249" fill="#231F20" width="9.682" height="1.101"/>
			<rect x="100.688" y="66.287" fill="#231F20" width="9.682" height="1.101"/>
			<rect x="100.688" y="68.268" fill="#231F20" width="9.682" height="1.102"/>
		</g>
		<g>
			<path fill="#231F20" d="M139.303,61.517v-1.101h-19.165c-0.199,0.356-0.378,0.723-0.539,1.101H139.303z"/>
			<path fill="#231F20" d="M128.45,65.479c0.092-0.401,0.269-0.765,0.497-1.101h-10.137c-0.052,0.361-0.085,0.728-0.104,1.101
				H128.45z"/>
			<path fill="#231F20" d="M129.816,63.498c0.857-0.607,2.071-0.974,3.641-0.974c1.684,0,3.29,0.412,4.684,0.974h1.162v-1.101
				h-20.047c-0.117,0.358-0.214,0.727-0.296,1.101H129.816z"/>
			<path fill="#231F20" d="M139.303,55.572v-0.227c-0.55-0.287-1.274-0.548-2.102-0.763h-9.309c-0.913,0.254-1.772,0.588-2.576,0.99
				H139.303z"/>
			<path fill="#231F20" d="M139.436,69.441v-0.971c-0.68,0.38-1.458,0.711-2.29,0.971H139.436z"/>
			<path fill="#231F20" d="M139.303,57.553v-1.101h-15.489c-0.499,0.339-0.969,0.704-1.403,1.101H139.303z"/>
			<path fill="#231F20" d="M139.303,59.535v-1.101h-17.758c-0.309,0.349-0.592,0.718-0.854,1.101H139.303z"/>
			<path fill="#231F20" d="M128.572,67.46c-0.122-0.344-0.201-0.709-0.208-1.101h-9.676c0.008,0.371,0.025,0.741,0.064,1.101
				H128.572z"/>
			<path fill="#231F20" d="M139.436,75.386v-1.101h-17.4c0.39,0.391,0.807,0.761,1.255,1.101H139.436z"/>
			<path fill="#231F20" d="M139.436,76.267h-14.829c0.757,0.437,1.573,0.804,2.438,1.101h10.878c0.58-0.187,1.097-0.394,1.513-0.614
				V76.267z"/>
			<path fill="#231F20" d="M139.436,73.404v-1.101h-18.988c0.241,0.383,0.508,0.749,0.793,1.101H139.436z"/>
			<path fill="#231F20" d="M139.436,71.423v-1.101h-19.979c0.145,0.378,0.308,0.744,0.491,1.101H139.436z"/>
			<path fill="#231F20" d="M130.441,69.441c-0.595-0.28-1.061-0.655-1.403-1.101h-10.146c0.07,0.375,0.161,0.741,0.266,1.101
				H130.441z"/>
		</g>
		<g>
			<rect x="157.071" y="56.234" fill="#231F20" width="9.679" height="1.101"/>
			<rect x="157.071" y="54.363" fill="#231F20" width="9.679" height="0.99"/>
			<rect x="157.071" y="58.215" fill="#231F20" width="9.679" height="1.101"/>
			<rect x="142.518" y="56.234" fill="#231F20" width="9.678" height="1.101"/>
			<rect x="142.518" y="54.363" fill="#231F20" width="9.678" height="0.99"/>
			<rect x="157.071" y="74.066" fill="#231F20" width="9.679" height="1.101"/>
			<rect x="157.071" y="72.085" fill="#231F20" width="9.679" height="1.101"/>
			<rect x="142.518" y="58.215" fill="#231F20" width="9.678" height="1.101"/>
			<rect x="157.071" y="70.104" fill="#231F20" width="9.679" height="1.101"/>
			<rect x="157.071" y="60.196" fill="#231F20" width="9.679" height="1.101"/>
			<rect x="142.518" y="72.085" fill="#231F20" width="9.678" height="1.101"/>
			<rect x="142.518" y="70.104" fill="#231F20" width="9.678" height="1.101"/>
			<rect x="142.518" y="74.066" fill="#231F20" width="9.678" height="1.101"/>
			<rect x="142.518" y="76.048" fill="#231F20" width="9.678" height="1.101"/>
			<rect x="157.071" y="76.048" fill="#231F20" width="9.679" height="1.101"/>
			<rect x="142.518" y="64.16" fill="#231F20" width="24.232" height="1.101"/>
			<polygon fill="#231F20" points="152.195,69.223 152.195,69.064 157.071,69.064 157.071,69.223 166.75,69.223 166.75,68.122 
				142.518,68.122 142.518,69.223 			"/>
			<rect x="142.518" y="62.178" fill="#231F20" width="24.232" height="1.101"/>
			<rect x="142.518" y="60.196" fill="#231F20" width="9.678" height="1.101"/>
			<rect x="142.518" y="66.141" fill="#231F20" width="24.232" height="1.101"/>
		</g>
	</g>
	<rect x="100.688" y="76.193" fill="#231F20" width="9.682" height="1.101"/>
</g>
</svg>
