<?xml version="1.0" encoding="utf-8"?>
<!-- Generator: Adobe Illustrator 16.0.4, SVG Export Plug-In . SVG Version: 6.00 Build 0)  -->
<!DOCTYPE svg PUBLIC "-//W3C//DTD SVG 1.1//EN" "http://www.w3.org/Graphics/SVG/1.1/DTD/svg11.dtd">
<svg version="1.1" id="Layer_1" xmlns="http://www.w3.org/2000/svg" xmlns:xlink="http://www.w3.org/1999/xlink" x="0px" y="0px"
	 width="150px" height="150px" viewBox="0 0 150 150" enable-background="new 0 0 150 150" xml:space="preserve">
<path fill="#231F20" d="M125.632,38.721v-4.79H53.506c-2.213,1.474-4.316,3.053-6.251,4.79H125.632z"/>
<path fill="#231F20" d="M119.094,30.094c-3.425-1.649-7.562-3.133-12.195-4.309H65.965c-4.052,1.105-7.863,2.556-11.422,4.309
	H119.094z"/>
<path fill="#231F20" d="M100.492,59.811c5.968,1.099,12.054,2.87,17.021,4.79h2.502v-4.79H100.492z"/>
<path fill="#231F20" d="M122.016,47.351v-4.792h-82.22c-1.372,1.521-2.622,3.128-3.792,4.792H122.016z"/>
<rect x="78.886" y="77.062" fill="#231F20" width="41.863" height="4.793"/>
<rect x="81.694" y="85.688" fill="#231F20" width="41.864" height="4.795"/>
<rect x="80.693" y="68.712" fill="#231F20" width="41.864" height="4.518"/>
<path fill="#231F20" d="M123.514,55.974v-4.792H31.619c-0.926,1.549-1.759,3.149-2.507,4.792H123.514z"/>
<path fill="#231F20" d="M128.968,116.359v-4.792H45.233c1.682,1.708,3.489,3.312,5.445,4.792H128.968z"/>
<path fill="#231F20" d="M122.558,99.107v-4.79H90.877v2.546c-0.843,0.275-2.27,0.57-4.251,0.57c-3.992,0-7.853-1.094-11.089-3.116
	h-47.64c0.599,1.646,1.279,3.243,2.045,4.79H122.558z"/>
<path fill="#231F20" d="M124.5,107.737v-4.793H32.041c1.044,1.664,2.2,3.255,3.452,4.793H124.5z"/>
<path fill="#231F20" d="M50.044,120.196c3.328,1.901,6.964,3.5,10.862,4.79h48.86c4.474-1.408,8.275-3.067,11.31-4.79H50.044z"/>
<path fill="#231F20" d="M72.333,64.601c2.257-2.171,5.252-3.79,8.876-4.79H27.619c-0.534,1.561-0.981,3.161-1.362,4.79H72.333z"/>
<path fill="#231F20" d="M71.127,90.482c-1.176-1.406-2.149-3.004-2.867-4.795H25.622c0.276,1.636,0.633,3.231,1.06,4.795H71.127z"/>
<path fill="#231F20" d="M67.483,73.23c0.413-1.711,1.064-3.31,1.92-4.792H25.537c-0.248,1.57-0.425,3.166-0.53,4.792H67.483z"/>
<path fill="#231F20" d="M62.363,81.855c-0.207-1.169-0.334-2.383-0.334-3.661c0-0.39,0.082-0.751,0.101-1.132H20.024
	c0.011,1.619,0.091,3.221,0.241,4.793H62.363z"/>
</svg>
